<?xml version="1.0" encoding="UTF-8"?>
<svg version="1.1" xmlns="http://www.w3.org/2000/svg" width="200" height="200">
<path d="M0 0 C66 0 132 0 200 0 C200 66 200 132 200 200 C134 200 68 200 0 200 C0 134 0 68 0 0 Z " fill="#FCFEFE" transform="translate(0,0)"/>
<path d="M0 0 C40.92 0 81.84 0 124 0 C124 10.89 124 21.78 124 33 C120.04 33 116.08 33 112 33 C112 26.07 112 19.14 112 12 C78.67 12 45.34 12 11 12 C11 45 11 78 11 112 C44 112 77 112 111 112 C111 94.18 111 76.36 111 58 C120 55 120 55 123 55 C123 77.44 123 99.88 123 123 C82.41 123 41.82 123 0 123 C0 82.41 0 41.82 0 0 Z " fill="#01CAFC" transform="translate(36,38)"/>
<path d="M0 0 C-0.72316406 0.57363281 -1.44632813 1.14726563 -2.19140625 1.73828125 C-9.72155406 7.80219722 -16.10937482 13.59070721 -21 22 C-21.928125 23.36125 -21.928125 23.36125 -22.875 24.75 C-24.69634439 30.01166158 -24.70244565 35.49750906 -24 41 C-21.95436805 45.0912639 -20.29715074 47.26285396 -16 49 C-4.513846 50.7313688 6.15591094 45.31406578 16 40 C12.61205428 49.95746484 2.56389737 54.86320684 -6.3515625 59.30078125 C-14.46122985 63.16302603 -23.30252883 66.07609877 -32.23046875 63.30859375 C-37.63980389 60.88301946 -41.3240797 57.3518406 -44 52 C-45.40763578 40.6749303 -42.67097429 33.51913542 -37 24 C-37.57443848 24.01571045 -38.14887695 24.0314209 -38.74072266 24.04760742 C-41.36871309 24.11035513 -43.99654537 24.14911506 -46.625 24.1875 C-47.52863281 24.21263672 -48.43226562 24.23777344 -49.36328125 24.26367188 C-54.71024149 24.32221524 -58.34014531 23.94917714 -63 21 C-63 17 -63 17 -61.1875 15.0625 C-44.61532693 4.33932919 -19.64080169 -1.14535993 0 0 Z " fill="#191B1A" transform="translate(116,80)"/>
<path d="M0 0 C40.92 0 81.84 0 124 0 C124 10.89 124 21.78 124 33 C120.04 33 116.08 33 112 33 C112 26.07 112 19.14 112 12 C78.67 12 45.34 12 11 12 C11 45 11 78 11 112 C44 112 77 112 111 112 C111 94.18 111 76.36 111 58 C120 55 120 55 123 55 C123 77.44 123 99.88 123 123 C82.41 123 41.82 123 0 123 C0 82.41 0 41.82 0 0 Z M2 2 C2 3.98 2 5.96 2 8 C1.67 8.33 1.34 8.66 1 9 C0.9043839 10.45481495 0.87811649 11.91425486 0.87974548 13.37220764 C0.87836799 14.31399652 0.87699049 15.25578539 0.87557125 16.22611332 C0.87916936 17.2717718 0.88276747 18.31743029 0.88647461 19.39477539 C0.88635407 20.50506072 0.88623354 21.61534605 0.88610935 22.75927639 C0.88685888 26.37208969 0.89448894 29.98485212 0.90234375 33.59765625 C0.90381304 35.82059708 0.90483383 38.04353825 0.90539551 40.26647949 C0.91064984 48.53182492 0.9246109 56.79716295 0.9375 65.0625 C0.958125 83.521875 0.97875 101.98125 1 121 C40.6 121 80.2 121 121 121 C121 100.21 121 79.42 121 58 C118.36 58.33 115.72 58.66 113 59 C112.67 76.49 112.34 93.98 112 112 C61.51 112.495 61.51 112.495 10 113 C10 79.01 10 45.02 10 10 C43.66 10 77.32 10 112 10 C112.33 17.26 112.66 24.52 113 32 C115.97 32 118.94 32 122 32 C122 22.1 122 12.2 122 2 C82.4 2 42.8 2 2 2 Z " fill="#2DC0E4" transform="translate(36,38)"/>
<path d="M0 0 C0 0.99 0 1.98 0 3 C-7.49921697 6.29410955 -14.8808444 9.03045609 -22.8125 11.0625 C-24.38572021 11.47435547 -24.38572021 11.47435547 -25.99072266 11.89453125 C-28.47050342 12.54092447 -30.95109452 13.18311974 -33.43310547 13.82080078 C-37.90044126 14.97059275 -42.36138429 16.1442751 -46.82261658 17.31748962 C-51.09593157 18.43891993 -55.37169406 19.55080667 -59.64804077 20.66061401 C-61.79725606 21.2196608 -63.94571932 21.78160687 -66.09341431 22.34646606 C-69.14068878 23.14649371 -72.19092667 23.93408384 -75.2421875 24.71875 C-76.62966942 25.08691078 -76.62966942 25.08691078 -78.04518127 25.46250916 C-78.90280563 25.6804866 -79.76042999 25.89846405 -80.64404297 26.12304688 C-81.39168915 26.31733276 -82.13933533 26.51161865 -82.90963745 26.71179199 C-85.22384975 27.03086321 -86.79156357 26.70916496 -89 26 C-82.95480318 16.51428923 -75.92747607 7.88658194 -65 4 C-60.03781176 2.93541106 -55.0389166 2.31702434 -50 1.75 C-48.93533005 1.62292664 -48.93533005 1.62292664 -47.84915161 1.49328613 C-31.89904629 -0.38804144 -16.0373389 -0.42173643 0 0 Z " fill="#1C1D1D" transform="translate(188,76)"/>
<path d="M0 0 C2.4375 1.6875 2.4375 1.6875 4.4375 4.6875 C5.00156134 7.78983736 4.97741882 9.78251151 3.33984375 12.52734375 C-0.04355576 16.79493833 -3.22472406 19.1999231 -8.5625 20.6875 C-13.52180803 21.19413435 -17.91708904 21.3730879 -22.5625 19.4375 C-26.34027778 16.13194444 -26.34027778 16.13194444 -27.5625 13.6875 C-27.69535927 10.10029963 -27.48160704 7.7663449 -25.1015625 4.97265625 C-17.80643918 -1.54198445 -9.32356314 -3.43499694 0 0 Z " fill="#16101E" transform="translate(118.5625,56.3125)"/>
<path d="M0 0 C33.33 0 66.66 0 101 0 C101 6.93 101 13.86 101 21 C100.67 21 100.34 21 100 21 C100 14.4 100 7.8 100 1 C67.66 1 35.32 1 2 1 C2 33.01 2 65.02 2 98 C30.13653157 97.59256908 30.13653157 97.59256908 58.27270508 97.16162109 C63.7454834 97.08911133 63.7454834 97.08911133 66.31694031 97.05776978 C68.0923471 97.03412221 69.86770144 97.00628898 71.64299011 96.9750061 C90.85936969 96.64239316 90.85936969 96.64239316 100 99 C100 99.33 100 99.66 100 100 C67 100 34 100 0 100 C0 67 0 34 0 0 Z " fill="#BFF1FA" transform="translate(47,50)"/>
<path d="M0 0 C0 4.0541612 -1.58846142 5.34025367 -4.19921875 8.28125 C-6.87802517 10.83802836 -9.69601674 12.34800837 -13 14 C-13 13.34 -13 12.68 -13 12 C-13.66 12 -14.32 12 -15 12 C-15 11.01 -15 10.02 -15 9 C-15.66 8.67 -16.32 8.34 -17 8 C-16.19175781 7.67386719 -15.38351563 7.34773438 -14.55078125 7.01171875 C-12.94783203 6.35623047 -12.94783203 6.35623047 -11.3125 5.6875 C-10.25675781 5.25824219 -9.20101562 4.82898438 -8.11328125 4.38671875 C-5.2462191 3.10967099 -2.64909614 1.67595878 0 0 Z " fill="#2E2E2E" transform="translate(131,120)"/>
<path d="M0 0 C0.66 0.33 1.32 0.66 2 1 C-0.18196167 5.50029595 -3.29911446 8.20115264 -7.0625 11.3515625 C-8.99477917 12.94750855 -8.99477917 12.94750855 -10.62109375 14.640625 C-12.26075163 16.25705827 -13.91118262 17.05666312 -16 18 C-16.66 18.33 -17.32 18.66 -18 19 C-14.21221541 10.7473872 -7.19881827 5.22363231 0 0 Z " fill="#EBEDEC" transform="translate(114,81)"/>
<path d="M0 0 C-0.33 0.99 -0.66 1.98 -1 3 C-3.765625 4.01953125 -3.765625 4.01953125 -7.25 4.8125 C-8.38953125 5.08707031 -9.5290625 5.36164063 -10.703125 5.64453125 C-14.20863456 6.02249496 -15.90842137 5.59809046 -19 4 C-15.91450652 2.33354243 -12.87324675 1.26238404 -9.5 0.3125 C-8.5615625 0.04050781 -7.623125 -0.23148437 -6.65625 -0.51171875 C-3.99233534 -1.00140894 -2.52388628 -0.88693174 0 0 Z " fill="#EEEEED" transform="translate(161,89)"/>
<path d="M0 0 C-0.8125 2.9375 -0.8125 2.9375 -2 6 C-2.99 6.33 -3.98 6.66 -5 7 C-5 6.34 -5 5.68 -5 5 C-5.66 5 -6.32 5 -7 5 C-7 4.01 -7 3.02 -7 2 C-7.66 1.67 -8.32 1.34 -9 1 C-3.375 -1.125 -3.375 -1.125 0 0 Z " fill="#262827" transform="translate(123,127)"/>
<path d="M0 0 C0.66 0.33 1.32 0.66 2 1 C0.12050295 4.57104439 -1.17053157 6.54744301 -5 8 C-5.99 7.34 -6.98 6.68 -8 6 C-5.36 4.02 -2.72 2.04 0 0 Z " fill="#E4E6E5" transform="translate(114,81)"/>
<path d="M0 0 C-1.65 1.32 -3.3 2.64 -5 4 C-5.33 3.01 -5.66 2.02 -6 1 C-7.051875 1.350625 -8.10375 1.70125 -9.1875 2.0625 C-12.7954681 2.94970527 -14.52632489 3.05262882 -18 2 C-18 1.67 -18 1.34 -18 1 C-11.97403427 -0.0712828 -6.11090483 -0.09945415 0 0 Z " fill="#404141" transform="translate(116,80)"/>
<path d="M0 0 C0.33 0.66 0.66 1.32 1 2 C1.66 2.33 2.32 2.66 3 3 C2.67 3.66 2.34 4.32 2 5 C-0.32156597 5.40729228 -2.6568787 5.74438677 -5 6 C-3.35 4.02 -1.7 2.04 0 0 Z " fill="#27222D" transform="translate(97,58)"/>
<path d="M0 0 C0 0.99 0 1.98 0 3 C-3.62326739 4.2077558 -4.64146369 3.54311128 -8 2 C-4.91190305 0.23537317 -3.76687864 0 0 0 Z " fill="#E1E5E1" transform="translate(150,91)"/>
</svg>
